<mxfile host="app.diagrams.net" modified="2022-12-16T09:49:17.553Z" agent="5.0 (Macintosh; Intel Mac OS X 10_15_7) AppleWebKit/537.36 (KHTML, like Gecko) Chrome/108.0.0.0 Safari/537.36" etag="fuRShFQ4H5zqj5TkoOU1" version="20.5.3" type="github">
  <diagram id="Dkjgve9HmOaBdxFocwZy" name="第 1 页">
    <mxGraphModel dx="1810" dy="887" grid="1" gridSize="10" guides="1" tooltips="1" connect="1" arrows="1" fold="1" page="1" pageScale="1" pageWidth="827" pageHeight="1169" math="0" shadow="0">
      <root>
        <mxCell id="0" />
        <mxCell id="1" parent="0" />
        <mxCell id="xi8hHkxFKBZAGWoeGlfR-15" style="edgeStyle=orthogonalEdgeStyle;rounded=0;orthogonalLoop=1;jettySize=auto;html=1;entryX=-0.002;entryY=0.563;entryDx=0;entryDy=0;entryPerimeter=0;fontSize=18;" edge="1" parent="1" source="xi8hHkxFKBZAGWoeGlfR-1" target="xi8hHkxFKBZAGWoeGlfR-2">
          <mxGeometry relative="1" as="geometry" />
        </mxCell>
        <mxCell id="xi8hHkxFKBZAGWoeGlfR-1" value="" style="verticalLabelPosition=bottom;verticalAlign=top;html=1;shadow=0;dashed=0;strokeWidth=1;shape=mxgraph.android.phone2;strokeColor=#c0c0c0;" vertex="1" parent="1">
          <mxGeometry x="40" y="80" width="51.28" height="100" as="geometry" />
        </mxCell>
        <mxCell id="xi8hHkxFKBZAGWoeGlfR-7" value="&lt;font style=&quot;&quot;&gt;&lt;font color=&quot;#ff0000&quot; style=&quot;font-size: 14px;&quot;&gt;只有ReturnFlow流程才有&lt;/font&gt;&lt;br&gt;OTP页面&lt;/font&gt;" style="rounded=0;whiteSpace=wrap;html=1;strokeWidth=1;fontSize=18;fillColor=#FFFFFF;" vertex="1" parent="1">
          <mxGeometry x="645" y="60" width="120" height="120" as="geometry" />
        </mxCell>
        <mxCell id="xi8hHkxFKBZAGWoeGlfR-9" value="" style="rounded=0;whiteSpace=wrap;html=1;fillColor=#E6E6E6;dashed=1;strokeWidth=2;" vertex="1" parent="1">
          <mxGeometry x="340" y="250" width="440" height="160" as="geometry" />
        </mxCell>
        <mxCell id="xi8hHkxFKBZAGWoeGlfR-10" value="&lt;span style=&quot;font-size: 18px;&quot;&gt;KYC流程&lt;/span&gt;" style="text;html=1;align=center;verticalAlign=middle;resizable=0;points=[];autosize=1;strokeColor=none;fillColor=none;" vertex="1" parent="1">
          <mxGeometry x="495" y="260" width="100" height="40" as="geometry" />
        </mxCell>
        <mxCell id="xi8hHkxFKBZAGWoeGlfR-18" style="edgeStyle=orthogonalEdgeStyle;rounded=0;orthogonalLoop=1;jettySize=auto;html=1;entryX=1;entryY=0.5;entryDx=0;entryDy=0;fontSize=18;" edge="1" parent="1" source="xi8hHkxFKBZAGWoeGlfR-11" target="xi8hHkxFKBZAGWoeGlfR-12">
          <mxGeometry relative="1" as="geometry" />
        </mxCell>
        <mxCell id="xi8hHkxFKBZAGWoeGlfR-11" value="&lt;span style=&quot;font-size: 14px;&quot;&gt;OCR页面&lt;/span&gt;" style="rounded=0;whiteSpace=wrap;html=1;strokeWidth=1;fontSize=18;fillColor=#FFFFFF;" vertex="1" parent="1">
          <mxGeometry x="645" y="330" width="120" height="60" as="geometry" />
        </mxCell>
        <mxCell id="xi8hHkxFKBZAGWoeGlfR-19" style="edgeStyle=orthogonalEdgeStyle;rounded=0;orthogonalLoop=1;jettySize=auto;html=1;entryX=1;entryY=0.5;entryDx=0;entryDy=0;fontSize=18;" edge="1" parent="1" source="xi8hHkxFKBZAGWoeGlfR-12" target="xi8hHkxFKBZAGWoeGlfR-13">
          <mxGeometry relative="1" as="geometry" />
        </mxCell>
        <mxCell id="xi8hHkxFKBZAGWoeGlfR-12" value="&lt;span style=&quot;font-size: 14px;&quot;&gt;Selfie页面&lt;/span&gt;" style="rounded=0;whiteSpace=wrap;html=1;strokeWidth=1;fontSize=18;fillColor=#FFFFFF;" vertex="1" parent="1">
          <mxGeometry x="500" y="330" width="120" height="60" as="geometry" />
        </mxCell>
        <mxCell id="xi8hHkxFKBZAGWoeGlfR-21" style="edgeStyle=orthogonalEdgeStyle;rounded=0;orthogonalLoop=1;jettySize=auto;html=1;entryX=0.992;entryY=0.583;entryDx=0;entryDy=0;entryPerimeter=0;fontSize=18;" edge="1" parent="1" source="xi8hHkxFKBZAGWoeGlfR-13" target="xi8hHkxFKBZAGWoeGlfR-20">
          <mxGeometry relative="1" as="geometry" />
        </mxCell>
        <mxCell id="xi8hHkxFKBZAGWoeGlfR-13" value="&lt;span style=&quot;font-size: 14px;&quot;&gt;KYC-Form页面&lt;/span&gt;" style="rounded=0;whiteSpace=wrap;html=1;strokeWidth=1;fontSize=18;fillColor=#FFFFFF;" vertex="1" parent="1">
          <mxGeometry x="355" y="330" width="120" height="60" as="geometry" />
        </mxCell>
        <mxCell id="xi8hHkxFKBZAGWoeGlfR-14" value="" style="group" vertex="1" connectable="0" parent="1">
          <mxGeometry x="140" y="40" width="440" height="160" as="geometry" />
        </mxCell>
        <mxCell id="xi8hHkxFKBZAGWoeGlfR-2" value="" style="rounded=0;whiteSpace=wrap;html=1;fillColor=none;dashed=1;strokeWidth=2;" vertex="1" parent="xi8hHkxFKBZAGWoeGlfR-14">
          <mxGeometry width="440" height="160" as="geometry" />
        </mxCell>
        <mxCell id="xi8hHkxFKBZAGWoeGlfR-3" value="&lt;font style=&quot;font-size: 18px;&quot;&gt;Onboard页面&lt;/font&gt;" style="text;html=1;align=center;verticalAlign=middle;resizable=0;points=[];autosize=1;strokeColor=none;fillColor=none;" vertex="1" parent="xi8hHkxFKBZAGWoeGlfR-14">
          <mxGeometry x="150" y="10" width="130" height="40" as="geometry" />
        </mxCell>
        <mxCell id="xi8hHkxFKBZAGWoeGlfR-4" value="&lt;font style=&quot;font-size: 14px;&quot;&gt;用户白名单校验&lt;/font&gt;" style="rounded=0;whiteSpace=wrap;html=1;strokeWidth=1;fontSize=18;fillColor=#E6E6E6;" vertex="1" parent="xi8hHkxFKBZAGWoeGlfR-14">
          <mxGeometry x="20" y="80" width="120" height="60" as="geometry" />
        </mxCell>
        <mxCell id="xi8hHkxFKBZAGWoeGlfR-5" value="&lt;font style=&quot;font-size: 14px;&quot;&gt;检查APP版本&lt;/font&gt;" style="rounded=0;whiteSpace=wrap;html=1;strokeWidth=1;fontSize=18;fillColor=#E6E6E6;" vertex="1" parent="xi8hHkxFKBZAGWoeGlfR-14">
          <mxGeometry x="160" y="80" width="120" height="60" as="geometry" />
        </mxCell>
        <mxCell id="xi8hHkxFKBZAGWoeGlfR-6" value="&lt;span style=&quot;font-size: 14px;&quot;&gt;FQA&lt;/span&gt;" style="rounded=0;whiteSpace=wrap;html=1;strokeWidth=1;fontSize=18;fillColor=#E6E6E6;" vertex="1" parent="xi8hHkxFKBZAGWoeGlfR-14">
          <mxGeometry x="300" y="80" width="120" height="60" as="geometry" />
        </mxCell>
        <mxCell id="xi8hHkxFKBZAGWoeGlfR-16" style="edgeStyle=orthogonalEdgeStyle;rounded=0;orthogonalLoop=1;jettySize=auto;html=1;fontSize=18;" edge="1" parent="1" source="xi8hHkxFKBZAGWoeGlfR-2" target="xi8hHkxFKBZAGWoeGlfR-7">
          <mxGeometry relative="1" as="geometry" />
        </mxCell>
        <mxCell id="xi8hHkxFKBZAGWoeGlfR-17" style="edgeStyle=orthogonalEdgeStyle;rounded=0;orthogonalLoop=1;jettySize=auto;html=1;fontSize=18;" edge="1" parent="1" source="xi8hHkxFKBZAGWoeGlfR-7" target="xi8hHkxFKBZAGWoeGlfR-11">
          <mxGeometry relative="1" as="geometry" />
        </mxCell>
        <mxCell id="xi8hHkxFKBZAGWoeGlfR-24" style="edgeStyle=orthogonalEdgeStyle;rounded=0;orthogonalLoop=1;jettySize=auto;html=1;entryX=1;entryY=0.5;entryDx=0;entryDy=0;fontSize=18;" edge="1" parent="1" source="xi8hHkxFKBZAGWoeGlfR-20" target="xi8hHkxFKBZAGWoeGlfR-22">
          <mxGeometry relative="1" as="geometry" />
        </mxCell>
        <mxCell id="xi8hHkxFKBZAGWoeGlfR-25" style="edgeStyle=orthogonalEdgeStyle;rounded=0;orthogonalLoop=1;jettySize=auto;html=1;entryX=1;entryY=0.5;entryDx=0;entryDy=0;fontSize=18;" edge="1" parent="1" source="xi8hHkxFKBZAGWoeGlfR-20" target="xi8hHkxFKBZAGWoeGlfR-23">
          <mxGeometry relative="1" as="geometry" />
        </mxCell>
        <mxCell id="xi8hHkxFKBZAGWoeGlfR-27" style="edgeStyle=orthogonalEdgeStyle;rounded=0;orthogonalLoop=1;jettySize=auto;html=1;fontSize=18;" edge="1" parent="1" source="xi8hHkxFKBZAGWoeGlfR-20" target="xi8hHkxFKBZAGWoeGlfR-26">
          <mxGeometry relative="1" as="geometry">
            <Array as="points">
              <mxPoint x="250" y="430" />
              <mxPoint x="250" y="430" />
            </Array>
          </mxGeometry>
        </mxCell>
        <mxCell id="xi8hHkxFKBZAGWoeGlfR-20" value="新增等待页" style="rounded=0;whiteSpace=wrap;html=1;strokeWidth=1;fontSize=18;fillColor=#FFFFFF;" vertex="1" parent="1">
          <mxGeometry x="160" y="290" width="150" height="120" as="geometry" />
        </mxCell>
        <mxCell id="xi8hHkxFKBZAGWoeGlfR-22" value="Pending" style="rounded=0;whiteSpace=wrap;html=1;strokeWidth=1;fontSize=18;fillColor=#FFFFFF;dashed=1;" vertex="1" parent="1">
          <mxGeometry x="20" y="300" width="100" height="40" as="geometry" />
        </mxCell>
        <mxCell id="xi8hHkxFKBZAGWoeGlfR-23" value="Rejected" style="rounded=0;whiteSpace=wrap;html=1;strokeWidth=1;fontSize=18;fillColor=#FFFFFF;dashed=1;" vertex="1" parent="1">
          <mxGeometry x="20" y="360" width="100" height="40" as="geometry" />
        </mxCell>
        <mxCell id="xi8hHkxFKBZAGWoeGlfR-39" style="edgeStyle=orthogonalEdgeStyle;rounded=0;orthogonalLoop=1;jettySize=auto;html=1;entryX=0;entryY=0.5;entryDx=0;entryDy=0;fontSize=18;" edge="1" parent="1" source="xi8hHkxFKBZAGWoeGlfR-26" target="xi8hHkxFKBZAGWoeGlfR-29">
          <mxGeometry relative="1" as="geometry" />
        </mxCell>
        <mxCell id="xi8hHkxFKBZAGWoeGlfR-26" value="Success" style="rounded=0;whiteSpace=wrap;html=1;strokeWidth=1;fontSize=18;fillColor=#FFFFFF;dashed=1;" vertex="1" parent="1">
          <mxGeometry x="190" y="480" width="100" height="40" as="geometry" />
        </mxCell>
        <mxCell id="xi8hHkxFKBZAGWoeGlfR-40" style="edgeStyle=orthogonalEdgeStyle;rounded=0;orthogonalLoop=1;jettySize=auto;html=1;entryX=0;entryY=0.5;entryDx=0;entryDy=0;fontSize=18;" edge="1" parent="1" source="xi8hHkxFKBZAGWoeGlfR-29" target="xi8hHkxFKBZAGWoeGlfR-30">
          <mxGeometry relative="1" as="geometry" />
        </mxCell>
        <mxCell id="xi8hHkxFKBZAGWoeGlfR-29" value="FEC OTP" style="rounded=0;whiteSpace=wrap;html=1;strokeWidth=1;fontSize=18;fillColor=#FFFFFF;" vertex="1" parent="1">
          <mxGeometry x="330" y="440" width="120" height="120" as="geometry" />
        </mxCell>
        <mxCell id="xi8hHkxFKBZAGWoeGlfR-41" style="edgeStyle=orthogonalEdgeStyle;rounded=0;orthogonalLoop=1;jettySize=auto;html=1;fontSize=18;" edge="1" parent="1" source="xi8hHkxFKBZAGWoeGlfR-30" target="xi8hHkxFKBZAGWoeGlfR-35">
          <mxGeometry relative="1" as="geometry" />
        </mxCell>
        <mxCell id="xi8hHkxFKBZAGWoeGlfR-42" style="edgeStyle=orthogonalEdgeStyle;rounded=0;orthogonalLoop=1;jettySize=auto;html=1;entryX=0;entryY=0.5;entryDx=0;entryDy=0;fontSize=18;" edge="1" parent="1" source="xi8hHkxFKBZAGWoeGlfR-30" target="xi8hHkxFKBZAGWoeGlfR-31">
          <mxGeometry relative="1" as="geometry" />
        </mxCell>
        <mxCell id="xi8hHkxFKBZAGWoeGlfR-30" value="KYC-Form&lt;br&gt;set pin" style="rounded=0;whiteSpace=wrap;html=1;strokeWidth=1;fontSize=18;fillColor=#FFFFFF;" vertex="1" parent="1">
          <mxGeometry x="495" y="440" width="120" height="120" as="geometry" />
        </mxCell>
        <mxCell id="xi8hHkxFKBZAGWoeGlfR-31" value="会员Set Pin页" style="rounded=0;whiteSpace=wrap;html=1;strokeWidth=1;fontSize=18;fillColor=#FFFFFF;" vertex="1" parent="1">
          <mxGeometry x="660" y="440" width="120" height="120" as="geometry" />
        </mxCell>
        <mxCell id="xi8hHkxFKBZAGWoeGlfR-34" value="" style="rounded=0;whiteSpace=wrap;html=1;strokeWidth=2;fontSize=18;fillColor=#E6E6E6;dashed=1;" vertex="1" parent="1">
          <mxGeometry x="330" y="600" width="450" height="120" as="geometry" />
        </mxCell>
        <mxCell id="xi8hHkxFKBZAGWoeGlfR-35" value="&lt;span style=&quot;font-size: 18px;&quot;&gt;KYC-RESULT结果页&lt;/span&gt;" style="text;html=1;align=center;verticalAlign=middle;resizable=0;points=[];autosize=1;strokeColor=none;fillColor=none;" vertex="1" parent="1">
          <mxGeometry x="460" y="600" width="190" height="40" as="geometry" />
        </mxCell>
        <mxCell id="xi8hHkxFKBZAGWoeGlfR-36" value="Success" style="rounded=0;whiteSpace=wrap;html=1;strokeWidth=1;fontSize=18;fillColor=#FFFFFF;dashed=1;" vertex="1" parent="1">
          <mxGeometry x="645" y="670" width="120" height="40" as="geometry" />
        </mxCell>
        <mxCell id="xi8hHkxFKBZAGWoeGlfR-37" value="Pending" style="rounded=0;whiteSpace=wrap;html=1;strokeWidth=1;fontSize=18;fillColor=#FFFFFF;dashed=1;" vertex="1" parent="1">
          <mxGeometry x="498" y="670" width="120" height="40" as="geometry" />
        </mxCell>
        <mxCell id="xi8hHkxFKBZAGWoeGlfR-38" value="Rejected" style="rounded=0;whiteSpace=wrap;html=1;strokeWidth=1;fontSize=18;fillColor=#FFFFFF;dashed=1;" vertex="1" parent="1">
          <mxGeometry x="350" y="670" width="120" height="40" as="geometry" />
        </mxCell>
      </root>
    </mxGraphModel>
  </diagram>
</mxfile>
